<svg width="227" height="49" viewBox="0 0 227 49" fill="none" xmlns="http://www.w3.org/2000/svg">
<path d="M9.77625 40V18.8H15.8563V21.68H16.0563C16.5096 20.9067 17.1896 20.1733 18.0963 19.48C19.0029 18.76 20.2429 18.4 21.8163 18.4C23.4163 18.4 24.6963 18.7733 25.6563 19.52C26.6429 20.2667 27.3629 21.1867 27.8163 22.28H27.8963C28.2429 21.6667 28.6963 21.0667 29.2563 20.48C29.8429 19.8667 30.5629 19.3733 31.4163 19C32.2963 18.6 33.3229 18.4 34.4963 18.4C35.9629 18.4 37.1763 18.7333 38.1363 19.4C39.0963 20.0667 39.8029 20.9467 40.2563 22.04C40.7363 23.1067 40.9763 24.2533 40.9763 25.48V40H34.8963V27C34.8963 25.96 34.6296 25.1067 34.0963 24.44C33.5896 23.7467 32.8163 23.4 31.7763 23.4C30.9763 23.4 30.3229 23.6 29.8163 24C29.3363 24.4 28.9763 24.92 28.7363 25.56C28.5229 26.1733 28.4163 26.8133 28.4163 27.48V40H22.3363V27C22.3363 25.96 22.0696 25.1067 21.5363 24.44C21.0296 23.7467 20.2563 23.4 19.2163 23.4C18.4163 23.4 17.7629 23.6 17.2563 24C16.7763 24.4 16.4163 24.92 16.1763 25.56C15.9629 26.1733 15.8563 26.8133 15.8563 27.48V40H9.77625ZM51.9356 40.4C50.4423 40.4 49.2023 40.08 48.2156 39.44C47.2556 38.8 46.5356 37.9467 46.0556 36.88C45.5756 35.7867 45.3356 34.56 45.3356 33.2V18.8H51.3756V32C51.3756 33.0133 51.6423 33.84 52.1756 34.48C52.709 35.0933 53.4956 35.4 54.5356 35.4C55.4156 35.4 56.109 35.1867 56.6156 34.76C57.149 34.3333 57.5356 33.7867 57.7756 33.12C58.0156 32.4533 58.1356 31.7467 58.1356 31V18.8H64.2156V40H58.1356V37H57.8956C57.4423 37.8267 56.7356 38.6 55.7756 39.32C54.8423 40.04 53.5623 40.4 51.9356 40.4ZM77.4713 40.4C75.7113 40.4 74.2579 40.16 73.1113 39.68C71.9646 39.2 71.0446 38.6133 70.3513 37.92C69.6846 37.2 69.1779 36.4933 68.8313 35.8C68.5113 35.08 68.2979 34.48 68.1913 34C68.1113 33.52 68.0713 33.28 68.0713 33.28H73.7113C73.7113 33.28 73.7513 33.4133 73.8313 33.68C73.9113 33.9467 74.0846 34.2533 74.3513 34.6C74.6446 34.9467 75.0579 35.2533 75.5913 35.52C76.1246 35.7867 76.8446 35.92 77.7513 35.92C78.8713 35.92 79.6313 35.6933 80.0313 35.24C80.4579 34.7867 80.6713 34.3333 80.6713 33.88C80.6713 32.92 79.8846 32.28 78.3113 31.96L75.4313 31.4C74.2046 31.16 73.0446 30.8133 71.9513 30.36C70.8846 29.88 70.0179 29.2267 69.3513 28.4C68.7113 27.5467 68.3913 26.4533 68.3913 25.12C68.3913 23.84 68.7246 22.6933 69.3913 21.68C70.0579 20.6667 71.0046 19.8667 72.2313 19.28C73.4846 18.6933 74.9779 18.4 76.7113 18.4C78.3379 18.4 79.6846 18.6267 80.7513 19.08C81.8446 19.5067 82.7113 20.0533 83.3513 20.72C83.9913 21.36 84.4713 22.0133 84.7913 22.68C85.1113 23.32 85.3113 23.8667 85.3913 24.32C85.4979 24.7467 85.5513 24.96 85.5513 24.96H80.1113C80.1113 24.96 80.0313 24.7867 79.8713 24.44C79.7113 24.0667 79.3779 23.7067 78.8713 23.36C78.3913 22.9867 77.6446 22.8 76.6313 22.8C75.5913 22.8 74.8713 23.0133 74.4713 23.44C74.0713 23.84 73.8713 24.2667 73.8713 24.72C73.8713 25.2533 74.0979 25.6533 74.5513 25.92C75.0313 26.1867 75.6446 26.4 76.3913 26.56L79.1513 27.12C81.1779 27.52 82.8446 28.2267 84.1513 29.24C85.4579 30.2267 86.1113 31.6667 86.1113 33.56C86.1113 34.84 85.7779 36 85.1113 37.04C84.4446 38.08 83.4713 38.9067 82.1913 39.52C80.9113 40.1067 79.3379 40.4 77.4713 40.4ZM93.3356 15.92C92.269 15.92 91.4023 15.5867 90.7356 14.92C90.069 14.2267 89.7356 13.4133 89.7356 12.48C89.7356 11.4933 90.069 10.6667 90.7356 10C91.4023 9.30667 92.269 8.96 93.3356 8.96C94.349 8.96 95.2023 9.30667 95.8956 10C96.589 10.6667 96.9356 11.4933 96.9356 12.48C96.9356 13.4133 96.589 14.2267 95.8956 14.92C95.2023 15.5867 94.349 15.92 93.3356 15.92ZM90.2956 40V18.8H96.3756V40H90.2956ZM112.152 48.48C110.178 48.48 108.552 48.24 107.272 47.76C106.018 47.28 105.018 46.6667 104.272 45.92C103.525 45.2 102.978 44.48 102.632 43.76C102.285 43.04 102.058 42.4267 101.952 41.92C101.872 41.44 101.832 41.2 101.832 41.2H107.752C107.752 41.2 107.792 41.32 107.872 41.56C107.978 41.8267 108.178 42.12 108.472 42.44C108.765 42.7867 109.192 43.08 109.752 43.32C110.338 43.5867 111.112 43.72 112.072 43.72C113.725 43.72 114.938 43.2533 115.712 42.32C116.512 41.3867 116.912 40.16 116.912 38.64V36.4H116.632C116.365 36.8267 115.965 37.2933 115.432 37.8C114.898 38.3067 114.218 38.7333 113.392 39.08C112.565 39.4267 111.565 39.6 110.392 39.6C108.818 39.6 107.445 39.3067 106.272 38.72C105.098 38.1067 104.112 37.2933 103.312 36.28C102.538 35.2667 101.952 34.1333 101.552 32.88C101.178 31.6267 100.992 30.3333 100.992 29C100.992 27.6933 101.178 26.4133 101.552 25.16C101.952 23.88 102.538 22.7333 103.312 21.72C104.112 20.7067 105.098 19.9067 106.272 19.32C107.445 18.7067 108.818 18.4 110.392 18.4C111.565 18.4 112.565 18.5867 113.392 18.96C114.218 19.3067 114.898 19.7333 115.432 20.24C115.992 20.72 116.392 21.1867 116.632 21.64H116.912V18.8H122.992V38.64C122.992 40.4 122.605 42.0267 121.832 43.52C121.058 45.0133 119.872 46.2133 118.272 47.12C116.672 48.0267 114.632 48.48 112.152 48.48ZM112.072 34.8C113.192 34.8 114.112 34.52 114.832 33.96C115.578 33.4 116.138 32.68 116.512 31.8C116.885 30.8933 117.072 29.96 117.072 29C117.072 28.0133 116.885 27.08 116.512 26.2C116.138 25.32 115.578 24.6 114.832 24.04C114.112 23.48 113.192 23.2 112.072 23.2C110.978 23.2 110.058 23.48 109.312 24.04C108.592 24.6 108.045 25.32 107.672 26.2C107.298 27.08 107.112 28.0133 107.112 29C107.112 29.96 107.298 30.8933 107.672 31.8C108.045 32.68 108.592 33.4 109.312 33.96C110.058 34.52 110.978 34.8 112.072 34.8ZM136.066 18.4C137.426 18.4 138.546 18.6267 139.426 19.08C140.306 19.5067 140.973 19.9733 141.426 20.48C141.906 20.9867 142.2 21.3333 142.306 21.52H142.626V18.8H148.706V40H142.626V37.28H142.306C142.2 37.4667 141.906 37.8133 141.426 38.32C140.973 38.8267 140.306 39.3067 139.426 39.76C138.546 40.1867 137.426 40.4 136.066 40.4C134.493 40.4 133.12 40.0933 131.946 39.48C130.8 38.84 129.84 38 129.066 36.96C128.293 35.8933 127.706 34.7067 127.306 33.4C126.933 32.0933 126.746 30.76 126.746 29.4C126.746 28.04 126.933 26.7067 127.306 25.4C127.706 24.0933 128.293 22.92 129.066 21.88C129.84 20.8133 130.8 19.9733 131.946 19.36C133.12 18.72 134.493 18.4 136.066 18.4ZM137.826 23.32C136.733 23.32 135.813 23.6267 135.066 24.24C134.346 24.8267 133.8 25.5867 133.426 26.52C133.08 27.4533 132.906 28.4133 132.906 29.4C132.906 30.3867 133.08 31.3467 133.426 32.28C133.8 33.2133 134.346 33.9867 135.066 34.6C135.813 35.1867 136.733 35.48 137.826 35.48C138.92 35.48 139.826 35.1867 140.546 34.6C141.293 33.9867 141.84 33.2133 142.186 32.28C142.56 31.3467 142.746 30.3867 142.746 29.4C142.746 28.4133 142.56 27.4533 142.186 26.52C141.84 25.5867 141.293 24.8267 140.546 24.24C139.826 23.6267 138.92 23.32 137.826 23.32ZM163.849 40.4C161.982 40.4 160.369 40.0933 159.009 39.48C157.649 38.84 156.529 38 155.649 36.96C154.769 35.8933 154.102 34.7067 153.649 33.4C153.222 32.0933 153.009 30.7467 153.009 29.36C153.009 28.0267 153.209 26.72 153.609 25.44C154.035 24.1333 154.675 22.9467 155.529 21.88C156.409 20.8133 157.515 19.9733 158.849 19.36C160.209 18.72 161.809 18.4 163.649 18.4C165.595 18.4 167.315 18.8267 168.809 19.68C170.329 20.5333 171.515 21.8 172.369 23.48C173.222 25.1333 173.649 27.1467 173.649 29.52V31H159.129C159.209 32.28 159.649 33.3867 160.449 34.32C161.275 35.2533 162.409 35.72 163.849 35.72C164.675 35.72 165.342 35.6 165.849 35.36C166.382 35.0933 166.795 34.8 167.089 34.48C167.382 34.1333 167.582 33.8267 167.689 33.56C167.795 33.2933 167.849 33.16 167.849 33.16H173.449C173.449 33.16 173.382 33.4133 173.249 33.92C173.142 34.4 172.902 35 172.529 35.72C172.155 36.44 171.609 37.16 170.889 37.88C170.195 38.6 169.275 39.2 168.129 39.68C166.982 40.16 165.555 40.4 163.849 40.4ZM159.129 27.32H167.809C167.729 25.8533 167.289 24.76 166.489 24.04C165.689 23.32 164.702 22.96 163.529 22.96C162.355 22.96 161.355 23.3467 160.529 24.12C159.702 24.8667 159.235 25.9333 159.129 27.32ZM177.715 40V18.8H183.755V21.88H183.955C184.195 21.32 184.529 20.7733 184.955 20.24C185.382 19.7067 185.969 19.2667 186.715 18.92C187.462 18.5733 188.422 18.4 189.595 18.4C190.182 18.4 190.649 18.44 190.995 18.52C191.342 18.5733 191.515 18.6 191.515 18.6V24.6C191.515 24.6 191.315 24.56 190.915 24.48C190.542 24.4 190.049 24.36 189.435 24.36C187.542 24.36 186.129 24.88 185.195 25.92C184.262 26.9333 183.795 28.6 183.795 30.92V40H177.715Z" fill="#FF9686"/>
<path d="M204.497 36.34C202.479 36.34 200.768 35.9093 199.363 35.048C197.957 34.164 196.881 33.0193 196.133 31.614C195.407 30.186 195.045 28.6447 195.045 26.99C195.045 25.3353 195.407 23.8053 196.133 22.4C196.881 20.972 197.957 19.8273 199.363 18.966C200.768 18.082 202.479 17.64 204.497 17.64C206.514 17.64 208.225 18.082 209.631 18.966C211.036 19.8273 212.101 20.972 212.827 22.4C213.575 23.8053 213.949 25.3353 213.949 26.99C213.949 28.6447 213.575 30.186 212.827 31.614C212.101 33.0193 211.036 34.164 209.631 35.048C208.225 35.9093 206.514 36.34 204.497 36.34ZM204.497 32.124C205.403 32.124 206.163 31.886 206.775 31.41C207.409 30.934 207.897 30.3107 208.237 29.54C208.577 28.7467 208.747 27.8967 208.747 26.99C208.747 26.0607 208.577 25.2107 208.237 24.44C207.897 23.6693 207.409 23.046 206.775 22.57C206.163 22.094 205.403 21.856 204.497 21.856C203.59 21.856 202.819 22.094 202.185 22.57C201.55 23.046 201.063 23.6693 200.723 24.44C200.405 25.2107 200.247 26.0607 200.247 26.99C200.247 27.8967 200.405 28.7467 200.723 29.54C201.063 30.3107 201.55 30.934 202.185 31.41C202.819 31.886 203.59 32.124 204.497 32.124Z" fill="#FF9686"/>
<path d="M195 41H215" stroke="#DB8EFF" stroke-width="5" stroke-linecap="round"/>
</svg>
