<svg width="156" height="36" viewBox="0 0 156 36" fill="none" xmlns="http://www.w3.org/2000/svg">
<path d="M5.12598 14.484V1.488H27.964V14.484H5.12598ZM10.712 10.304H22.872V5.63H10.712V10.304ZM1.89598 18.132H31.346V22.692H19.11V33.218H14.094V22.692H1.89598V18.132ZM51.7698 8.518H45.6898C45.5378 10.798 45.4238 19.538 51.6938 21.666V26.074C50.4398 25.77 49.2238 25.314 48.1218 24.706C46.2218 23.718 44.0938 21.894 43.1818 19.12C42.2318 22.16 40.1418 23.832 38.2038 24.858C37.1018 25.428 35.8858 25.846 34.6318 26.074V21.666C40.9018 19.538 40.6358 10.798 40.4838 8.518H34.5938V4.262H51.7698V8.518ZM59.8258 1.298V33.256H54.7338V1.298H59.8258ZM78.1151 4.262V8.138C78.1151 16.84 71.3131 25.314 64.9291 29.456L64.8911 23.528C69.5651 19.576 72.3391 14.37 72.7571 9.012H64.0171V4.262H78.1151ZM88.4891 12.014V1.678H93.1251V32.914H88.4891V16.84H85.3351L85.4111 32.914H80.5851V1.678H85.3351V12.014H88.4891ZM100.078 19.918V10.456H118.09V7.872H100.078V3.502H123.296V13.952H105.284V16.422H123.296V19.918H100.078ZM113.948 25.504H126.108V29.836H97.3042V25.504H109.122V21.514H113.948V25.504Z" fill="#FF9686"/>
<path d="M133 28H153" stroke="#DB8EFF" stroke-width="5" stroke-linecap="round"/>
</svg>
