<svg width="106" height="94" viewBox="0 0 106 94" fill="none" xmlns="http://www.w3.org/2000/svg">
<path d="M21.3904 81V38.07H33.7024V43.902H34.1074C35.0254 42.336 36.4024 40.851 38.2384 39.447C40.0744 37.989 42.5854 37.26 45.7714 37.26C49.0114 37.26 51.6034 38.016 53.5474 39.528C55.5454 41.04 57.0034 42.903 57.9214 45.117H58.0834C58.7854 43.875 59.7034 42.66 60.8374 41.472C62.0254 40.23 63.4834 39.231 65.2114 38.475C66.9934 37.665 69.0724 37.26 71.4484 37.26C74.4184 37.26 76.8754 37.935 78.8194 39.285C80.7634 40.635 82.1944 42.417 83.1124 44.631C84.0844 46.791 84.5704 49.113 84.5704 51.597V81H72.2584V54.675C72.2584 52.569 71.7184 50.841 70.6384 49.491C69.6124 48.087 68.0464 47.385 65.9404 47.385C64.3204 47.385 62.9974 47.79 61.9714 48.6C60.9994 49.41 60.2704 50.463 59.7844 51.759C59.3524 53.001 59.1364 54.297 59.1364 55.647V81H46.8244V54.675C46.8244 52.569 46.2844 50.841 45.2044 49.491C44.1784 48.087 42.6124 47.385 40.5064 47.385C38.8864 47.385 37.5634 47.79 36.5374 48.6C35.5654 49.41 34.8364 50.463 34.3504 51.759C33.9184 53.001 33.7024 54.297 33.7024 55.647V81H21.3904Z" fill="white"/>
<path d="M21.3904 81H20.3904V82H21.3904V81ZM21.3904 38.07V37.07H20.3904V38.07H21.3904ZM33.7024 38.07H34.7024V37.07H33.7024V38.07ZM33.7024 43.902H32.7024V44.902H33.7024V43.902ZM34.1074 43.902V44.902H34.6803L34.9701 44.4077L34.1074 43.902ZM38.2384 39.447L38.8458 40.2414L38.8531 40.2358L38.8603 40.2301L38.2384 39.447ZM53.5474 39.528L52.9334 40.3174L52.9439 40.3254L53.5474 39.528ZM57.9214 45.117L56.9976 45.5L57.2535 46.117H57.9214V45.117ZM58.0834 45.117V46.117H58.6669L58.9539 45.6091L58.0834 45.117ZM60.8374 41.472L60.1147 40.7808L60.114 40.7815L60.8374 41.472ZM65.2114 38.475L65.6122 39.3912L65.6187 39.3883L65.6252 39.3854L65.2114 38.475ZM78.8194 39.285L79.3898 38.4636L79.3898 38.4636L78.8194 39.285ZM83.1124 44.631L82.1886 45.014L82.1944 45.0278L82.2005 45.0414L83.1124 44.631ZM84.5704 81V82H85.5704V81H84.5704ZM72.2584 81H71.2584V82H72.2584V81ZM70.6384 49.491L69.831 50.081L69.8439 50.0986L69.8575 50.1157L70.6384 49.491ZM61.9714 48.6L61.3517 47.8151L61.3414 47.8233L61.3312 47.8318L61.9714 48.6ZM59.7844 51.759L58.8481 51.4079L58.8438 51.4191L58.8399 51.4305L59.7844 51.759ZM59.1364 81V82H60.1364V81H59.1364ZM46.8244 81H45.8244V82H46.8244V81ZM45.2044 49.491L44.397 50.081L44.4099 50.0986L44.4235 50.1157L45.2044 49.491ZM36.5374 48.6L35.9177 47.8151L35.9074 47.8233L35.8972 47.8318L36.5374 48.6ZM34.3504 51.759L33.4141 51.4079L33.4098 51.4191L33.4059 51.4305L34.3504 51.759ZM33.7024 81V82H34.7024V81H33.7024ZM22.3904 81V38.07H20.3904V81H22.3904ZM21.3904 39.07H33.7024V37.07H21.3904V39.07ZM32.7024 38.07V43.902H34.7024V38.07H32.7024ZM33.7024 44.902H34.1074V42.902H33.7024V44.902ZM34.9701 44.4077C35.8073 42.9796 37.0858 41.5872 38.8458 40.2414L37.6309 38.6526C35.7189 40.1148 34.2435 41.6924 33.2447 43.3963L34.9701 44.4077ZM38.8603 40.2301C40.4653 38.9556 42.7307 38.26 45.7714 38.26V36.26C42.4401 36.26 39.6835 37.0224 37.6165 38.6639L38.8603 40.2301ZM45.7714 38.26C48.8593 38.26 51.2134 38.9795 52.9334 40.3174L54.1613 38.7386C51.9934 37.0524 49.1634 36.26 45.7714 36.26V38.26ZM52.9439 40.3254C54.807 41.7353 56.1508 43.4577 56.9976 45.5L58.8451 44.734C57.8559 42.3482 56.2838 40.3447 54.1508 38.7306L52.9439 40.3254ZM57.9214 46.117H58.0834V44.117H57.9214V46.117ZM58.9539 45.6091C59.6097 44.4489 60.4754 43.2995 61.5607 42.1625L60.114 40.7815C58.9313 42.0205 57.9611 43.3011 57.2128 44.6249L58.9539 45.6091ZM61.56 42.1632C62.6481 41.0257 63.9934 40.0994 65.6122 39.3912L64.8106 37.5588C62.9733 38.3626 61.4026 39.4343 60.1147 40.7808L61.56 42.1632ZM65.6252 39.3854C67.2525 38.6457 69.1852 38.26 71.4484 38.26V36.26C68.9595 36.26 66.7343 36.6843 64.7976 37.5646L65.6252 39.3854ZM71.4484 38.26C74.2667 38.26 76.5108 38.8993 78.249 40.1064L79.3898 38.4636C77.24 36.9707 74.5701 36.26 71.4484 36.26V38.26ZM78.249 40.1064C80.0336 41.3456 81.343 42.9746 82.1886 45.014L84.0361 44.248C83.0457 41.8594 81.4932 39.9243 79.3898 38.4636L78.249 40.1064ZM82.2005 45.0414C83.1116 47.0661 83.5704 49.2474 83.5704 51.597H85.5704C85.5704 48.9786 85.0572 46.5159 84.0243 44.2206L82.2005 45.0414ZM83.5704 51.597V81H85.5704V51.597H83.5704ZM84.5704 80H72.2584V82H84.5704V80ZM73.2584 81V54.675H71.2584V81H73.2584ZM73.2584 54.675C73.2584 52.393 72.67 50.4298 71.4193 48.8663L69.8575 50.1157C70.7667 51.2522 71.2584 52.745 71.2584 54.675H73.2584ZM71.4458 48.901C70.1908 47.1836 68.2897 46.385 65.9404 46.385V48.385C67.8031 48.385 69.034 48.9904 69.831 50.081L71.4458 48.901ZM65.9404 46.385C64.1506 46.385 62.5931 46.8351 61.3517 47.8151L62.591 49.3849C63.4017 48.7449 64.4901 48.385 65.9404 48.385V46.385ZM61.3312 47.8318C60.2137 48.763 59.3891 49.9652 58.8481 51.4079L60.7207 52.1101C61.1517 50.9608 61.7851 50.057 62.6116 49.3682L61.3312 47.8318ZM58.8399 51.4305C58.3702 52.7809 58.1364 54.1882 58.1364 55.647H60.1364C60.1364 54.4058 60.3346 53.2211 60.7289 52.0875L58.8399 51.4305ZM58.1364 55.647V81H60.1364V55.647H58.1364ZM59.1364 80H46.8244V82H59.1364V80ZM47.8244 81V54.675H45.8244V81H47.8244ZM47.8244 54.675C47.8244 52.393 47.236 50.4298 45.9853 48.8663L44.4235 50.1157C45.3327 51.2522 45.8244 52.745 45.8244 54.675H47.8244ZM46.0118 48.901C44.7568 47.1836 42.8557 46.385 40.5064 46.385V48.385C42.3691 48.385 43.6 48.9904 44.397 50.081L46.0118 48.901ZM40.5064 46.385C38.7166 46.385 37.1591 46.8351 35.9177 47.8151L37.157 49.3849C37.9677 48.7449 39.0561 48.385 40.5064 48.385V46.385ZM35.8972 47.8318C34.7797 48.763 33.9551 49.9652 33.4141 51.4079L35.2867 52.1101C35.7177 50.9608 36.3511 50.057 37.1776 49.3682L35.8972 47.8318ZM33.4059 51.4305C32.9362 52.7809 32.7024 54.1882 32.7024 55.647H34.7024C34.7024 54.4058 34.9006 53.2211 35.2949 52.0875L33.4059 51.4305ZM32.7024 55.647V81H34.7024V55.647H32.7024ZM33.7024 80H21.3904V82H33.7024V80Z" fill="#FF9686"/>
<path d="M71 52L84.9312 34.9729" stroke="#FFEA7E" stroke-width="4" stroke-linecap="round"/>
<path d="M73.5 62L88.0645 44.199" stroke="#DB8EFF" stroke-width="4" stroke-linecap="round"/>
</svg>
