<svg width="12" height="12" viewBox="0 0 12 12" fill="none" xmlns="http://www.w3.org/2000/svg">
<path fill-rule="evenodd" clip-rule="evenodd" d="M11.6 1.50001V7.10001C11.6 7.47131 11.4525 7.8274 11.1899 8.08996C10.9274 8.35251 10.5713 8.50001 10.2 8.50001H6.69999L3.19999 11.3V8.50001H1.79999C1.42869 8.50001 1.0726 8.35251 0.810044 8.08996C0.547493 7.8274 0.399994 7.47131 0.399994 7.10001V1.50001C0.399994 1.1287 0.547493 0.772608 0.810044 0.510057C1.0726 0.247506 1.42869 0.100006 1.79999 0.100006H10.2C10.5713 0.100006 10.9274 0.247506 11.1899 0.510057C11.4525 0.772608 11.6 1.1287 11.6 1.50001ZM3.89999 3.60001H2.49999V5.00001H3.89999V3.60001ZM5.29999 3.60001H6.69999V5.00001H5.29999V3.60001ZM9.49999 3.60001H8.09999V5.00001H9.49999V3.60001Z" fill="black" fill-opacity="0.4"/>
</svg>
