<svg width="106" height="94" viewBox="0 0 106 94" fill="none" xmlns="http://www.w3.org/2000/svg">
<path d="M21.3904 81V38.07H33.7024V43.902H34.1074C35.0254 42.336 36.4024 40.851 38.2384 39.447C40.0744 37.989 42.5854 37.26 45.7714 37.26C49.0114 37.26 51.6034 38.016 53.5474 39.528C55.5454 41.04 57.0034 42.903 57.9214 45.117H58.0834C58.7854 43.875 59.7034 42.66 60.8374 41.472C62.0254 40.23 63.4834 39.231 65.2114 38.475C66.9934 37.665 69.0724 37.26 71.4484 37.26C74.4184 37.26 76.8754 37.935 78.8194 39.285C80.7634 40.635 82.1944 42.417 83.1124 44.631C84.0844 46.791 84.5704 49.113 84.5704 51.597V81H72.2584V54.675C72.2584 52.569 71.7184 50.841 70.6384 49.491C69.6124 48.087 68.0464 47.385 65.9404 47.385C64.3204 47.385 62.9974 47.79 61.9714 48.6C60.9994 49.41 60.2704 50.463 59.7844 51.759C59.3524 53.001 59.1364 54.297 59.1364 55.647V81H46.8244V54.675C46.8244 52.569 46.2844 50.841 45.2044 49.491C44.1784 48.087 42.6124 47.385 40.5064 47.385C38.8864 47.385 37.5634 47.79 36.5374 48.6C35.5654 49.41 34.8364 50.463 34.3504 51.759C33.9184 53.001 33.7024 54.297 33.7024 55.647V81H21.3904Z" fill="white"/>
<path d="M71 52L84.9312 34.9729" stroke="#FF9686" stroke-width="4" stroke-linecap="round"/>
<path d="M73.5 62L88.0645 44.199" stroke="#DB8EFF" stroke-width="4" stroke-linecap="round"/>
</svg>
